<svg xmlns="http://www.w3.org/2000/svg" width="828" height="451" viewBox="0 0 828 451" version="1.1"><path d="M 281 245.477 C 275.325 247.314, 269.164 252.364, 267.376 256.643 C 266.298 259.222, 266 267.421, 266 294.468 L 266 329 274.500 329 L 283 329 283 313.500 L 283 298 288.750 298.006 C 303.354 298.020, 305.991 301.039, 305.996 317.750 L 306 329 314.590 329 L 323.179 329 322.840 313.703 C 322.459 296.574, 321.698 294.254, 315.481 291.290 L 312.060 289.658 315.954 285.434 C 321.894 278.989, 323.519 270.557, 320.480 261.944 C 318.108 255.219, 314.563 251.403, 307.430 247.891 C 299.596 244.034, 288.570 243.027, 281 245.477 M 403.326 245.016 C 391.840 247.366, 383.514 256.746, 380.960 270.211 C 380.432 272.995, 380 287.362, 380 302.136 L 380 329 388.500 329 L 397 329 397 314.500 L 397 300 409.500 300 L 422 300 422 314.500 L 422 329 430.578 329 L 439.156 329 438.791 299.250 C 438.443 270.828, 438.322 269.236, 436.078 263.581 C 433.268 256.498, 427.001 249.346, 421.500 246.944 C 416.437 244.733, 408.712 243.913, 403.326 245.016 M 605.115 245.100 C 593.855 247.029, 582.889 255.689, 577.283 267.077 C 566.150 289.691, 575.059 316.947, 597 327.403 C 602.779 330.157, 604.500 330.500, 612.521 330.500 C 620.691 330.500, 622.169 330.191, 628.193 327.226 C 643.944 319.472, 653.041 302.759, 651.721 284 C 650.787 270.729, 644.852 259.639, 634.476 251.778 C 626.438 245.688, 615.800 243.268, 605.115 245.100 M 220.558 247.492 C 214.926 249.498, 211.858 252.046, 209 257.089 L 206.500 261.500 206.201 295.250 L 205.901 329 213.925 329 L 221.948 329 222.224 313.750 L 222.500 298.500 234.250 298.218 L 246 297.937 246 290.500 L 246 283.063 234.250 282.782 L 222.500 282.500 222.640 277.224 C 222.936 266.018, 227.219 262, 238.868 262 L 246 262 246 254 L 246 246 235.250 246.044 C 228.668 246.071, 222.972 246.632, 220.558 247.492 M 343 287.500 L 343 329 351.500 329 L 360 329 360 287.500 L 360 246 351.500 246 L 343 246 343 287.500 M 460 277.818 C 460 314.528, 460.447 317.461, 466.935 323.322 C 471.956 327.858, 476.200 328.988, 488.250 328.994 L 498 329 498 321.638 L 498 314.276 491.408 313.601 C 487.782 313.229, 483.709 312.200, 482.357 311.314 C 477.236 307.959, 477 306.362, 477 275.050 L 477 246 468.500 246 L 460 246 460 277.818 M 505 254 L 505 262 513 262 L 521 262 521 295.500 L 521 329 529.500 329 L 538 329 538 295.500 L 538 262 546.500 262 L 555 262 555 254 L 555 246 530 246 L 505 246 505 254 M 285.750 262.975 C 283.080 265.082, 283 265.435, 283 275.073 L 283 285 286.250 285.140 C 300.305 285.744, 306 282.184, 306 272.793 C 306 268.970, 305.438 267.402, 303.149 264.840 C 300.681 262.078, 299.504 261.592, 294.399 261.227 C 289.462 260.873, 288.052 261.159, 285.750 262.975 M 402.514 265.168 C 398.738 268.138, 397 272.812, 397 279.999 L 397 286.062 409.250 285.781 L 421.500 285.500 421.830 282.026 C 422.896 270.812, 417.929 263, 409.735 263 C 406.669 263, 404.406 263.679, 402.514 265.168 M 603.176 265.600 C 592.625 270.857, 587.419 284.021, 591.437 295.282 C 595.954 307.943, 607.849 314.621, 618.581 310.522 C 628.597 306.697, 634 298.576, 634 287.349 C 634 279.244, 631.640 273.715, 626.012 268.630 C 619.269 262.538, 611.412 261.495, 603.176 265.600" stroke="none" fill="#fff7b2" fill-rule="evenodd"/><path d="M 360 16.595 C 357.525 16.803, 349.650 17.457, 342.500 18.048 C 252.447 25.495, 172.141 53.362, 118.675 95.719 C 100.191 110.362, 81.024 132.906, 71.473 151.234 C 61.745 169.904, 58.347 182.793, 56.791 206.926 C 55.515 226.722, 56.383 236.601, 60.665 251 C 66.806 271.649, 83.066 296.105, 102.354 313.702 C 108.810 319.592, 134.193 339.433, 144 346.256 C 176.796 369.071, 222.199 389.761, 268.500 402.989 C 296.730 411.054, 313.441 414.675, 344.500 419.458 C 389.404 426.372, 450.225 427.799, 496 423.014 C 604.572 411.664, 695.083 371.954, 739.983 315.973 C 764.720 285.130, 774.567 253.504, 770.642 217.500 C 768.044 193.665, 764.411 181.862, 754.518 165.120 C 744.769 148.622, 736.435 139.100, 716 121.110 C 692.452 100.379, 673.372 87.138, 646.780 73.073 C 607.887 52.501, 557.265 35.531, 507.500 26.380 C 491.091 23.363, 488.237 22.898, 477 21.411 C 449.662 17.792, 435.512 16.895, 400.500 16.561 C 380.700 16.372, 362.475 16.387, 360 16.595 M 369 37.019 C 239.752 45.836, 130.278 90.414, 82.626 153.632 C 74.491 164.425, 64.787 183.665, 62.013 194.500 C 52.603 231.261, 62.693 267.212, 91.204 298.509 C 124.229 334.761, 172.297 362.147, 237.500 381.861 C 272.785 392.529, 308.847 399.178, 358.500 404.171 C 375.777 405.909, 449.703 405.935, 467.500 404.210 C 545.354 396.664, 603.241 381.734, 656.500 355.465 C 688.379 339.741, 707.891 326.262, 728.014 306.062 C 755.047 278.926, 768 251.371, 768 221 C 768 170.229, 729.126 122.672, 659 87.653 C 605.300 60.837, 546.287 45.274, 470.500 37.940 C 456.245 36.561, 385.175 35.916, 369 37.019 M 304.500 76.597 C 312.179 82.485, 336.134 93.227, 352.330 98.045 C 372.286 103.983, 382.609 105.454, 404.500 105.478 C 429.823 105.506, 445.694 102.781, 468.691 94.456 C 483.041 89.262, 508.079 76.746, 506.760 75.427 C 506.505 75.171, 499.114 76.948, 490.337 79.376 C 423.520 97.859, 386.495 97.863, 319.731 79.395 C 310.992 76.978, 303.540 75.014, 303.171 75.032 C 302.802 75.049, 303.400 75.754, 304.500 76.597 M 259.132 88.848 C 259.334 89.431, 280.875 105.968, 307 125.598 C 358.917 164.607, 357.986 164.355, 324.732 130.386 C 314.979 120.423, 307 111.562, 307 110.695 C 307 108.072, 309.095 107.551, 318.462 107.844 L 327.424 108.125 325.462 105.956 C 320.536 100.510, 312.274 97.788, 286 92.955 C 274.175 90.780, 263.209 88.728, 261.632 88.395 C 259.813 88.011, 258.898 88.177, 259.132 88.848 M 527.500 92.434 C 501.574 97.397, 496.068 98.923, 489.869 102.862 C 482.381 107.620, 482.679 108.154, 492.654 107.841 C 501.899 107.551, 504 108.077, 504 110.685 C 504 111.547, 496.698 119.733, 487.772 128.876 C 452.617 164.889, 451.367 165.142, 504 125.585 C 530.125 105.951, 551.650 89.462, 551.833 88.943 C 552.281 87.676, 552.566 87.636, 527.500 92.434 M 328.031 98.824 C 328.048 99.196, 341.936 126.275, 358.894 159 C 377.579 195.059, 391.060 219.935, 393.113 222.142 C 400.170 229.729, 409.332 229.742, 417.112 222.176 C 421.279 218.123, 425.932 209.718, 452.012 159.136 C 468.563 127.035, 481.960 100.627, 481.783 100.450 C 481.606 100.273, 477.950 101.368, 473.657 102.883 L 465.853 105.638 459.580 117.569 C 456.130 124.131, 443.926 147.725, 432.460 170 C 420.995 192.275, 410.363 211.760, 408.834 213.300 C 405.473 216.685, 403.258 215.942, 399.619 210.207 C 397.686 207.161, 377.087 167.492, 349.514 113.721 C 345.660 106.204, 343.923 103.793, 342.008 103.302 C 340.637 102.950, 336.925 101.646, 333.758 100.405 C 330.591 99.164, 328.014 98.453, 328.031 98.824 M 278.500 237.346 C 271.940 239.507, 268.623 241.601, 264.265 246.328 C 257.261 253.927, 257 255.842, 257 299.682 L 257 338 274 338 L 291 338 291 322.500 L 291 307 293.974 307 L 296.948 307 297.224 322.250 L 297.500 337.500 314.250 337.774 L 331 338.048 331 318.665 L 331 299.282 328.030 293.394 L 325.060 287.507 327.280 283.003 C 329.101 279.309, 329.500 276.794, 329.500 269 C 329.500 260.353, 329.235 259.022, 326.554 254.181 C 322.846 247.488, 318.371 243.541, 310.047 239.624 C 304.219 236.882, 302.346 236.515, 293 236.285 C 286.324 236.121, 281.043 236.508, 278.500 237.346 M 397.300 237.797 C 390.224 240.331, 384.591 244.417, 380.607 249.907 C 372.457 261.137, 372.064 263.594, 371.972 303.866 L 371.895 337.500 388.421 337.774 L 404.946 338.048 405.223 323.274 L 405.500 308.500 409.250 308.190 L 413 307.879 413 322.940 L 413 338 430 338 L 447 338 447 304.710 C 447 269.381, 446.532 264.883, 441.912 255.827 C 438.758 249.644, 431.410 242.348, 425.356 239.386 C 418.024 235.798, 404.948 235.058, 397.300 237.797 M 600.618 237.112 C 593.574 238.766, 585.161 244.086, 578.613 251.027 C 567.867 262.418, 563.376 274.771, 564.262 290.500 C 566.328 327.185, 601.368 349.792, 632.500 334.525 C 644.284 328.745, 653.906 317.311, 658.123 304.072 C 661.029 294.951, 661.029 280.049, 658.123 270.928 C 653.053 255.013, 640.137 241.984, 625.068 237.585 C 619.190 235.870, 606.923 235.632, 600.618 237.112 M 222 238.383 C 214.061 240.137, 209.476 242.652, 205.049 247.682 C 197.725 256.002, 197.613 256.751, 197.231 299.750 L 196.891 338 213.920 338 L 230.949 338 231.225 322.250 L 231.500 306.500 242.750 306.217 L 254 305.934 254 290.467 L 254 275 243.167 275 C 237.208 275, 232.032 274.699, 231.664 274.331 C 231.297 273.963, 231.741 272.838, 232.653 271.831 C 234.045 270.292, 235.883 270, 244.155 270 L 254 270 254 253.500 L 254 237 240.750 237.084 C 233.463 237.130, 225.025 237.715, 222 238.383 M 334.667 237.667 C 334.300 238.033, 334 260.758, 334 288.167 L 334 338 351 338 L 368 338 368 287.500 L 368 237 351.667 237 C 342.683 237, 335.033 237.300, 334.667 237.667 M 451.203 275.250 C 451.504 312.165, 451.594 313.694, 453.754 319.049 C 456.681 326.302, 462.775 332.378, 469.884 335.132 C 474.532 336.932, 478.216 337.388, 491.250 337.773 L 507 338.239 507 321.619 L 507 305 497.571 305 C 490.333 305, 487.778 304.635, 486.571 303.429 C 485.207 302.065, 485 297.576, 485 269.429 L 485 237 467.945 237 L 450.891 237 451.203 275.250 M 496.667 237.667 C 496.300 238.033, 496 245.440, 496 254.126 L 496 269.919 504.250 270.210 L 512.500 270.500 512.763 304.250 L 513.027 338 530.013 338 L 547 338 547 304 L 547 270 555 270 L 563 270 563 253.500 L 563 237 530.167 237 C 512.108 237, 497.033 237.300, 496.667 237.667 M 281.994 244.934 C 275.651 246.864, 269.787 251.497, 267.122 256.684 C 266.355 258.177, 266 269.976, 266 293.934 L 266 329 274.500 329 L 283 329 283 313.356 L 283 297.711 290.250 298.261 C 304.067 299.309, 306 301.843, 306 318.901 L 306 330 314.569 330 L 323.138 330 322.819 314.070 C 322.467 296.476, 321.717 294.146, 315.405 291.034 L 312.432 289.568 315.990 286.010 C 328.432 273.568, 321.050 250.953, 302.774 245.526 C 297.420 243.935, 286.316 243.620, 281.994 244.934 M 399.969 245.472 C 393.326 247.614, 387.608 253.020, 383.792 260.767 L 380.500 267.450 380.186 298.725 L 379.871 330 388.436 330 L 397 330 397 314.969 L 397 299.938 409.250 300.219 L 421.500 300.500 421.669 315 L 421.837 329.500 430.419 329.789 L 439 330.078 439 301.749 C 439 269.495, 438.325 264.948, 432.225 256.091 C 427.167 248.748, 420.529 245.051, 411.330 244.454 C 406.927 244.168, 402.890 244.530, 399.969 245.472 M 602.223 245.488 C 586.932 249.791, 575.414 263.651, 572.732 280.976 C 569.848 299.606, 579.978 319.458, 596.500 327.558 C 601.924 330.218, 603.459 330.500, 612.500 330.500 C 621.563 330.500, 623.039 330.227, 628.255 327.585 C 635.893 323.717, 644.254 314.819, 648.225 306.333 C 651.943 298.388, 653.084 286.494, 651.028 277.128 C 648.289 264.654, 638.663 252.482, 627.493 247.368 C 620.512 244.172, 609.746 243.371, 602.223 245.488 M 219.500 247.503 C 214.310 249.339, 208.479 255.622, 206.847 261.137 C 205.914 264.293, 205.549 274.355, 205.528 297.500 L 205.500 329.500 214 329.500 L 222.500 329.500 222.775 313.750 L 223.051 298 234.525 298 L 246 298 246 290.500 L 246 283 234.500 283 L 223 283 223.015 277.250 C 223.042 266.536, 227.841 262, 239.148 262 L 246 262 246 254 L 246 246 234.750 246.044 C 227.710 246.071, 222.003 246.617, 219.500 247.503 M 343 288 L 343 330 351.500 330 L 360 330 360 288 L 360 246 351.500 246 L 343 246 343 288 M 459.008 274.250 C 459.012 289.788, 459.488 305.425, 460.065 309 C 462.441 323.709, 469.215 328.818, 487.585 329.756 L 498 330.287 498 321.644 L 498 313 491.950 313 C 484.580 313, 480.794 311.193, 478.635 306.643 C 477.240 303.704, 477 298.997, 477 274.599 L 477 246 468 246 L 459 246 459.008 274.250 M 504 254 L 504 262 512.500 262 L 521 262 521 296 L 521 330 529.500 330 L 538 330 538 296 L 538 262 546.500 262 L 555 262 555 254 L 555 246 529.500 246 L 504 246 504 254 M 287.315 262.007 C 283.872 263.394, 283 266.209, 283 275.934 L 283 285 289.532 285 C 300.533 285, 306 281.017, 306 273 C 306 264.022, 296.372 258.358, 287.315 262.007 M 402.106 265.564 C 398.677 268.450, 397.014 273.238, 397.006 280.250 L 397 285 409.645 285 L 422.289 285 421.685 278.528 C 421.352 274.969, 420.380 270.701, 419.523 269.045 C 416.312 262.835, 407.453 261.065, 402.106 265.564 M 605.886 264.560 C 597.726 267.073, 590 278.229, 590 287.500 C 590 297.443, 598.661 308.967, 607.535 310.830 C 617.368 312.894, 626.325 308.463, 631.207 299.119 C 638.311 285.519, 631.255 267.568, 617.436 264.088 C 612.161 262.760, 611.666 262.780, 605.886 264.560 M 291.667 269.667 C 291.300 270.033, 291 271.833, 291 273.667 C 291 277.242, 292.450 277.900, 296.066 275.965 C 298.246 274.798, 298.602 272.002, 296.800 270.200 C 295.493 268.893, 292.728 268.605, 291.667 269.667 M 407.200 272.200 C 406.540 272.860, 406 274.210, 406 275.200 C 406 276.590, 406.796 277, 409.500 277 C 412.204 277, 413 276.590, 413 275.200 C 413 273.187, 411.177 271, 409.500 271 C 408.895 271, 407.860 271.540, 407.200 272.200 M 605.041 274.619 C 600.804 278.184, 599 282.031, 599 287.500 C 599 296.302, 604.910 303, 612.677 303 C 616.461 303, 617.739 302.461, 620.500 299.700 C 625.065 295.135, 626.731 289.227, 625.162 283.163 C 622.527 272.977, 612.203 268.593, 605.041 274.619" stroke="none" fill="#e40a14" fill-rule="evenodd"/><path d="M 369 37.019 C 239.752 45.836, 130.278 90.414, 82.626 153.632 C 74.491 164.425, 64.787 183.665, 62.013 194.500 C 52.603 231.261, 62.693 267.212, 91.204 298.509 C 124.229 334.761, 172.297 362.147, 237.500 381.861 C 272.785 392.529, 308.847 399.178, 358.500 404.171 C 375.777 405.909, 449.703 405.935, 467.500 404.210 C 545.354 396.664, 603.241 381.734, 656.500 355.465 C 688.379 339.741, 707.891 326.262, 728.014 306.062 C 755.047 278.926, 768 251.371, 768 221 C 768 170.229, 729.126 122.672, 659 87.653 C 605.300 60.837, 546.287 45.274, 470.500 37.940 C 456.245 36.561, 385.175 35.916, 369 37.019 M 304.500 76.597 C 312.179 82.485, 336.134 93.227, 352.330 98.045 C 372.286 103.983, 382.609 105.454, 404.500 105.478 C 429.823 105.506, 445.694 102.781, 468.691 94.456 C 483.041 89.262, 508.079 76.746, 506.760 75.427 C 506.505 75.171, 499.114 76.948, 490.337 79.376 C 423.520 97.859, 386.495 97.863, 319.731 79.395 C 310.992 76.978, 303.540 75.014, 303.171 75.032 C 302.802 75.049, 303.400 75.754, 304.500 76.597 M 259.132 88.848 C 259.334 89.431, 280.875 105.968, 307 125.598 C 358.917 164.607, 357.986 164.355, 324.732 130.386 C 314.979 120.423, 307 111.562, 307 110.695 C 307 108.072, 309.095 107.551, 318.462 107.844 L 327.424 108.125 325.462 105.956 C 320.536 100.510, 312.274 97.788, 286 92.955 C 274.175 90.780, 263.209 88.728, 261.632 88.395 C 259.813 88.011, 258.898 88.177, 259.132 88.848 M 527.500 92.434 C 501.574 97.397, 496.068 98.923, 489.869 102.862 C 482.381 107.620, 482.679 108.154, 492.654 107.841 C 501.899 107.551, 504 108.077, 504 110.685 C 504 111.547, 496.698 119.733, 487.772 128.876 C 452.617 164.889, 451.367 165.142, 504 125.585 C 530.125 105.951, 551.650 89.462, 551.833 88.943 C 552.281 87.676, 552.566 87.636, 527.500 92.434 M 328.031 98.824 C 328.048 99.196, 341.936 126.275, 358.894 159 C 377.579 195.059, 391.060 219.935, 393.113 222.142 C 400.170 229.729, 409.332 229.742, 417.112 222.176 C 421.279 218.123, 425.932 209.718, 452.012 159.136 C 468.563 127.035, 481.960 100.627, 481.783 100.450 C 481.606 100.273, 477.950 101.368, 473.657 102.883 L 465.853 105.638 459.580 117.569 C 456.130 124.131, 443.926 147.725, 432.460 170 C 420.995 192.275, 410.363 211.760, 408.834 213.300 C 405.473 216.685, 403.258 215.942, 399.619 210.207 C 397.686 207.161, 377.087 167.492, 349.514 113.721 C 345.660 106.204, 343.923 103.793, 342.008 103.302 C 340.637 102.950, 336.925 101.646, 333.758 100.405 C 330.591 99.164, 328.014 98.453, 328.031 98.824 M 278.500 237.346 C 271.940 239.507, 268.623 241.601, 264.265 246.328 C 257.261 253.927, 257 255.842, 257 299.682 L 257 338 274 338 L 291 338 291 322.500 L 291 307 293.974 307 L 296.948 307 297.224 322.250 L 297.500 337.500 314.250 337.774 L 331 338.048 331 318.665 L 331 299.282 328.030 293.394 L 325.060 287.507 327.280 283.003 C 329.101 279.309, 329.500 276.794, 329.500 269 C 329.500 260.353, 329.235 259.022, 326.554 254.181 C 322.846 247.488, 318.371 243.541, 310.047 239.624 C 304.219 236.882, 302.346 236.515, 293 236.285 C 286.324 236.121, 281.043 236.508, 278.500 237.346 M 397.300 237.797 C 390.224 240.331, 384.591 244.417, 380.607 249.907 C 372.457 261.137, 372.064 263.594, 371.972 303.866 L 371.895 337.500 388.421 337.774 L 404.946 338.048 405.223 323.274 L 405.500 308.500 409.250 308.190 L 413 307.879 413 322.940 L 413 338 430 338 L 447 338 447 304.710 C 447 269.381, 446.532 264.883, 441.912 255.827 C 438.758 249.644, 431.410 242.348, 425.356 239.386 C 418.024 235.798, 404.948 235.058, 397.300 237.797 M 600.618 237.112 C 593.574 238.766, 585.161 244.086, 578.613 251.027 C 567.867 262.418, 563.376 274.771, 564.262 290.500 C 566.328 327.185, 601.368 349.792, 632.500 334.525 C 644.284 328.745, 653.906 317.311, 658.123 304.072 C 661.029 294.951, 661.029 280.049, 658.123 270.928 C 653.053 255.013, 640.137 241.984, 625.068 237.585 C 619.190 235.870, 606.923 235.632, 600.618 237.112 M 222 238.383 C 214.061 240.137, 209.476 242.652, 205.049 247.682 C 197.725 256.002, 197.613 256.751, 197.231 299.750 L 196.891 338 213.920 338 L 230.949 338 231.225 322.250 L 231.500 306.500 242.750 306.217 L 254 305.934 254 290.467 L 254 275 243.167 275 C 237.208 275, 232.032 274.699, 231.664 274.331 C 231.297 273.963, 231.741 272.838, 232.653 271.831 C 234.045 270.292, 235.883 270, 244.155 270 L 254 270 254 253.500 L 254 237 240.750 237.084 C 233.463 237.130, 225.025 237.715, 222 238.383 M 334.667 237.667 C 334.300 238.033, 334 260.758, 334 288.167 L 334 338 351 338 L 368 338 368 287.500 L 368 237 351.667 237 C 342.683 237, 335.033 237.300, 334.667 237.667 M 451.203 275.250 C 451.504 312.165, 451.594 313.694, 453.754 319.049 C 456.681 326.302, 462.775 332.378, 469.884 335.132 C 474.532 336.932, 478.216 337.388, 491.250 337.773 L 507 338.239 507 321.619 L 507 305 497.571 305 C 490.333 305, 487.778 304.635, 486.571 303.429 C 485.207 302.065, 485 297.576, 485 269.429 L 485 237 467.945 237 L 450.891 237 451.203 275.250 M 496.667 237.667 C 496.300 238.033, 496 245.440, 496 254.126 L 496 269.919 504.250 270.210 L 512.500 270.500 512.763 304.250 L 513.027 338 530.013 338 L 547 338 547 304 L 547 270 555 270 L 563 270 563 253.500 L 563 237 530.167 237 C 512.108 237, 497.033 237.300, 496.667 237.667 M 459.443 275.500 C 459.443 292, 459.580 298.890, 459.748 290.812 C 459.915 282.733, 459.916 269.233, 459.748 260.812 C 459.581 252.390, 459.444 259, 459.443 275.500 M 504.349 254 C 504.349 258.675, 504.522 260.587, 504.732 258.250 C 504.943 255.912, 504.943 252.088, 504.732 249.750 C 504.522 247.412, 504.349 249.325, 504.349 254 M 291.667 269.667 C 291.300 270.033, 291 271.833, 291 273.667 C 291 277.242, 292.450 277.900, 296.066 275.965 C 298.246 274.798, 298.602 272.002, 296.800 270.200 C 295.493 268.893, 292.728 268.605, 291.667 269.667 M 205.477 300.250 L 205.500 329.500 214 329.500 L 222.500 329.500 222.540 314.249 L 222.581 298.998 222.264 313.999 L 221.948 329 213.989 329 L 206.030 329 205.742 300 L 205.454 270.999 205.477 300.250 M 407.200 272.200 C 406.540 272.860, 406 274.210, 406 275.200 C 406 276.590, 406.796 277, 409.500 277 C 412.204 277, 413 276.590, 413 275.200 C 413 273.187, 411.177 271, 409.500 271 C 408.895 271, 407.860 271.540, 407.200 272.200 M 605.041 274.619 C 600.804 278.184, 599 282.031, 599 287.500 C 599 296.302, 604.910 303, 612.677 303 C 616.461 303, 617.739 302.461, 620.500 299.700 C 625.065 295.135, 626.731 289.227, 625.162 283.163 C 622.527 272.977, 612.203 268.593, 605.041 274.619 M 402.750 285.740 C 406.188 285.936, 411.813 285.936, 415.250 285.740 C 418.688 285.545, 415.875 285.385, 409 285.385 C 402.125 285.385, 399.313 285.545, 402.750 285.740 M 421.888 329.293 C 422.327 329.729, 426.469 329.951, 431.093 329.785 L 439.500 329.485 430.295 328.992 C 425.233 328.722, 421.450 328.857, 421.888 329.293 M 310.280 329.736 C 312.909 329.943, 316.959 329.940, 319.280 329.731 C 321.601 329.521, 319.450 329.352, 314.500 329.355 C 309.550 329.358, 307.651 329.530, 310.280 329.736 M 347.280 329.736 C 349.909 329.943, 353.959 329.940, 356.280 329.731 C 358.601 329.521, 356.450 329.352, 351.500 329.355 C 346.550 329.358, 344.651 329.530, 347.280 329.736 M 384.280 329.736 C 386.909 329.943, 390.959 329.940, 393.280 329.731 C 395.601 329.521, 393.450 329.352, 388.500 329.355 C 383.550 329.358, 381.651 329.530, 384.280 329.736 M 485.750 329.732 C 488.087 329.943, 491.913 329.943, 494.250 329.732 C 496.587 329.522, 494.675 329.349, 490 329.349 C 485.325 329.349, 483.413 329.522, 485.750 329.732 M 525.280 329.736 C 527.909 329.943, 531.959 329.940, 534.280 329.731 C 536.601 329.521, 534.450 329.352, 529.500 329.355 C 524.550 329.358, 522.651 329.530, 525.280 329.736" stroke="none" fill="#fbea04" fill-rule="evenodd"/></svg>